<svg xmlns="http://www.w3.org/2000/svg" viewBox="0 0 64 64" width="64" height="64"><polygon points="16.00,16.00 48.00,16.00 48.00,48.00 16.00,48.00" fill="#6A7888"/><polygon points="22.40,6.40 27.52,6.40 27.52,16.64 22.40,16.64" fill="#6A7888"/><polygon points="36.48,6.40 41.60,6.40 41.60,16.64 36.48,16.64" fill="#6A7888"/><polygon points="22.40,47.36 27.52,47.36 27.52,57.60 22.40,57.60" fill="#6A7888"/><polygon points="36.48,47.36 41.60,47.36 41.60,57.60 36.48,57.60" fill="#6A7888"/><polygon points="6.40,22.40 16.64,22.40 16.64,27.52 6.40,27.52" fill="#6A7888"/><polygon points="6.40,36.48 16.64,36.48 16.64,41.60 6.40,41.60" fill="#6A7888"/><polygon points="47.36,22.40 57.60,22.40 57.60,27.52 47.36,27.52" fill="#6A7888"/><polygon points="47.36,36.48 57.60,36.48 57.60,41.60 47.36,41.60" fill="#6A7888"/><polygon points="26.88,26.88 37.12,26.88 37.12,37.12 26.88,37.12" fill="#3D4F66"/></svg>
